# xmcd CD database file
#
# Track frame offsets:
#	150
#	16692
#	35182
#	55949
#	72598
#	90068
#	112987
#	132928
#	154655
#	172180
#	194420
#	214847
#	235401
#	255744
#
# Disc length: 3670 seconds
#
# Revision: 0
# Processed by: cddbd v1.5.2PL0 Copyright (c) Steve Scherf et al.
# Submitted via: CDex 1.51
#
DISCID=c20e540e
DTITLE=LL Cool J - Mama Said Knock You Out: Deluxe Edition
DYEAR=2014
DGENRE=Rap
TTITLE0=The Boomin' System
TTITLE1=Around The Way Girl
TTITLE2=Eat Em Up L Chill
TTITLE3=Mr. Good Bar
TTITLE4=Murdergram
TTITLE5=Cheesy Rat Blues
TTITLE6=Farmers Blvd. (Our Anthem)
TTITLE7=Mama Said Knock You Out
TTITLE8=Milky Cereal
TTITLE9=Jingling Baby (Remixed But Still Jingling)
TTITLE10=To Da Break Of Dawn
TTITLE11=6 Minutes Of Pleasure
TTITLE12=Illegal Search
TTITLE13=The Power Of God
EXTD=Increasingly dismissed by hip-hop fans as an old-school relic and a slickpop sellout, LL Cool J rang in the '90s with Mama Said Knock You Out , ahard-edged artistic renaissance that became his biggest-selling album ever. Part of the credit is due to
EXTD=producer Marley Marl , whose thumping, bass-heavy sound helps LL reclaim the aggression of his early days. Mama Said Knock You Out isn't quite as hard as Radio , instead striking a balance between attitude and accessibility. But its greater variety
EXTD=and more layered arrangements make it LL's most listenable album, as well as keeping it in line with more contemporary sensibilities. Marl's productions onthe slower tracks are smooth and soulful, but still funky - as a result, the ladies'-man side 
EXTD=of LL's persona is the most convincing it's ever been, and his ballads don't feel sappy for arguably the first time on record.Even apart from the sympathetic musical settings, LL is at his most lyrically acrobatic, and the testosterone-fueled anthem
EXTD=s are delivered wit YEAR: 2014
EXTT0=
EXTT1=
EXTT2=
EXTT3=
EXTT4=
EXTT5=
EXTT6=
EXTT7=
EXTT8=
EXTT9=
EXTT10=
EXTT11=
EXTT12=
EXTT13=
PLAYORDER=
